<?xml version="1.0" encoding="utf-8"?>
<!-- Generator: Adobe Illustrator 23.0.0, SVG Export Plug-In . SVG Version: 6.00 Build 0)  -->
<svg version="1.1" id="Layer_1" xmlns="http://www.w3.org/2000/svg" xmlns:xlink="http://www.w3.org/1999/xlink" x="0px" y="0px"
	 viewBox="0 0 277 97.5" style="enable-background:new 0 0 277 97.5;" xml:space="preserve">
<style type="text/css">
	.st0{fill:#FFFFFF;}
</style>
<g>
	<g>
		<g>
			<g>
				<path class="st0" d="M127.79,41.31c-4.34,7.59-11.93,7.15-12.73,2.92c-5.66,6.06-11.02,1.9-7.7-3.87l9.7-16.93
					c-4.89,2.45-13.31,3.06-13.31,7.81c0,1.86,2.01,2.66,2.01,2.66l-1.42,2.45c-1.86-0.73-3.9-2.55-3.9-5.18
					c0-7.77,11.86-7.08,19.04-11.89l1.94,3.32l-10.8,18.72c-2.55,4.41,0.66,6.31,5.4-1.2l11.35-19.67h3.8l-12.77,22.22
					c-1.82,3.21,2.37,4.08,5.54-1.42L134,23.8c4.45-7.66,10.54-4.85,11.35-1.79l-2.52,1.39c-1.1-2.48-3.57-2.08-5.69,1.57
					L127.79,41.31z"/>
			</g>
			<g>
				<path class="st0" d="M137.31,39.56l-0.36,0.66c-1.75,3.06-0.36,4.52,1.97,4.52c2.66,0,6.17-2.52,8.9-5.69l0.26-0.29
					c0.51,0.22,1.17,0.8,1.42,1.31c-3.14,3.65-7.41,7.01-11.71,7.01c-4.49,0-6.53-3.72-4.16-7.77l3.98-6.82
					c1.61-2.77,4.05-4.38,7.12-4.38c3.1,0,5.07,2.63,3.03,6.13l-0.55,0.95C144.35,40.1,139.76,40.58,137.31,39.56z M138.41,37.7
					c1.42,0.51,3.87,0.59,5.69-2.52l0.55-0.95c2.26-3.94-1.61-4.56-3.8-0.8L138.41,37.7z"/>
			</g>
			<g>
				<path class="st0" d="M157.45,38.75c0.51,0.22,1.17,0.8,1.42,1.31c-3.14,3.65-6.75,7.01-9.89,7.01c-3.06,0-4.2-2.59-2.59-5.4
					l12.26-21.23h3.8l-12.77,22.22c-0.87,1.5-0.4,2.08,0.44,2.08c1.68,0,4.34-2.52,7.08-5.69L157.45,38.75z"/>
			</g>
			<g>
				<path class="st0" d="M160.45,40.21c-1.75,3.06-0.36,4.52,1.97,4.52c2.66,0,6.17-2.52,8.9-5.69l0.26-0.29
					c0.51,0.22,1.17,0.8,1.42,1.31c-3.14,3.65-7.41,7.01-11.71,7.01c-4.49,0-6.53-3.72-4.16-7.77l3.98-6.82
					c1.61-2.77,4.05-4.38,7.12-4.38c3.1,0,5.07,2.63,3.03,6.13l-0.55,0.95h-3.1l0.55-0.95c2.26-3.94-1.61-4.56-3.8-0.8L160.45,40.21
					z"/>
			</g>
			<g>
				<path class="st0" d="M215.5,38.75c0.51,0.22,1.17,0.8,1.42,1.31c-3.14,3.65-6.75,7.01-9.89,7.01c-3.06,0-4.2-2.59-2.59-5.4
					l4.92-8.57c1.82-3.14-1.57-3.94-8.72,6.17l-4.27,7.44h-3.87l7.84-13.61c1.79-3.1-1.53-3.9-8.57,5.95l-4.41,7.66h-3.83l4.78-8.28
					c-1.5,0.62-3.1,0.91-4.71,0.91l-1.71,2.99c-1.97,3.39-4.92,4.92-7.41,4.92c-2.45,0-4.38-1.46-4.38-4.05
					c0-1.2,0.4-2.59,1.35-4.23l2.7-4.74h1.2c-0.04-0.29-0.07-0.62-0.07-0.95c0-2.34,2.15-5.73,5.76-5.73c5.54,0,6.42,5,3.94,9.41
					l-0.15,0.26c2.08-0.18,4.23-1.13,5.8-2.92l0.15-0.15l3.28-5.69h3.8l-2.26,3.94c2.41-3.03,4.56-4.31,6.53-4.31
					c2.01,0,3.54,1.94,2.22,4.6c2.52-3.21,4.74-4.6,6.78-4.6c2.12,0,3.68,2.08,2.04,4.96l-5.47,9.59c-0.87,1.5-0.4,2.08,0.44,2.08
					c1.68,0,4.34-2.52,7.08-5.69L215.5,38.75z M174.09,41.16c-0.47,0.8-0.66,1.42-0.66,1.97c0,0.95,0.69,1.46,1.53,1.46
					c0.99,0,2.22-0.66,2.99-1.97l2.19-3.76c-1.42-0.44-2.66-1.13-3.54-2.12L174.09,41.16z M182.23,35.33
					c1.42-2.41,0.95-5.07-1.24-5.14c-1.35-0.04-2.34,1.39-2.34,2.85c0,1.86,1.1,3.14,2.7,3.76L182.23,35.33z"/>
			</g>
			<g>
				<path class="st0" d="M218.86,39.56l-0.36,0.66c-1.75,3.06-0.36,4.52,1.97,4.52c2.66,0,6.17-2.52,8.9-5.69l0.26-0.29
					c0.51,0.22,1.17,0.8,1.42,1.31c-3.14,3.65-7.41,7.01-11.71,7.01c-4.49,0-6.53-3.72-4.16-7.77l3.98-6.82
					c1.61-2.77,4.05-4.38,7.12-4.38c3.1,0,5.07,2.63,3.03,6.13l-0.55,0.95C225.9,40.1,221.3,40.58,218.86,39.56z M219.95,37.7
					c1.42,0.51,3.87,0.59,5.69-2.52l0.55-0.95c2.26-3.94-1.61-4.56-3.8-0.8L219.95,37.7z"/>
			</g>
		</g>
		<g>
			<g>
				<path class="st0" d="M117.01,57.54l-1.35,4.8l-5.13,16.37h-2.74l-5.32-25.53h3.35l2.77,14.82l0.84,5.06l1.45-5.06l4.64-14.82
					h2.96l4.64,14.82l1.45,5.06l0.84-5.06l2.77-14.82h3.35l-5.32,25.53h-2.74l-5.13-16.37L117.01,57.54z"/>
			</g>
			<g>
				<path class="st0" d="M152.26,53.19v2.96h-14.08v7.83h12.7v2.93h-12.7v8.44h14.73v2.96h-17.95V53.19L152.26,53.19L152.26,53.19z"
					/>
			</g>
			<g>
				<path class="st0" d="M174.6,53.19v2.96h-14.08v7.83h12.7v2.93h-12.7v8.44h14.73v2.96h-17.95V53.19L174.6,53.19L174.6,53.19z"/>
			</g>
			<g>
				<path class="st0" d="M182.85,65.69l11.5-12.5h4.54l-10.8,11.35l11.48,13.79h-4.39l-9.31-11.44l-3.03,3.22v8.22h-3.22V53.19h3.22
					L182.85,65.69L182.85,65.69z"/>
			</g>
			<g>
				<path class="st0" d="M219.88,53.19v2.96h-14.08v7.83h12.7v2.93h-12.7v8.44h14.73v2.96h-17.95V53.19L219.88,53.19L219.88,53.19z"
					/>
			</g>
			<g>
				<path class="st0" d="M238.12,68.37l2.77,4.29l-0.1-7.58V53.19h3.26v25.14h-2.93l-10.28-15.18l-2.77-4.29l0.1,7.58v11.89h-3.26
					V53.19h2.93L238.12,68.37z"/>
			</g>
			<g>
				<path class="st0" d="M249.2,78.33V53.19h8.6c7.6,0,11.57,3.9,11.57,12.57s-3.96,12.57-11.57,12.57L249.2,78.33L249.2,78.33z
					 M257.81,75.36c6.06,0,8.25-3.74,8.25-9.6c0-5.87-2.19-9.6-8.25-9.6h-5.38v19.21L257.81,75.36L257.81,75.36z"/>
			</g>
		</g>
	</g>
	<g>
		<g>
			<g>
				<g>
					<path class="st0" d="M66.01,69.42L66.01,69.42c0-0.61,0.49-1.12,1.11-1.12s1.11,0.5,1.11,1.1v0c0,0.61-0.49,1.11-1.11,1.11
						C66.5,70.52,66.01,70.02,66.01,69.42z M67.98,69.41L67.98,69.41c0-0.48-0.37-0.86-0.85-0.86c-0.49,0-0.86,0.39-0.86,0.86v0
						c0,0.47,0.37,0.86,0.85,0.86C67.61,70.28,67.98,69.89,67.98,69.41z M66.66,68.79h0.53c0.16,0,0.28,0.05,0.36,0.13
						c0.06,0.06,0.1,0.15,0.1,0.26v0c0,0.19-0.1,0.31-0.26,0.36l0.29,0.42h-0.31l-0.25-0.38h-0.2v0.38h-0.26L66.66,68.79
						L66.66,68.79z M67.19,69.37c0.13,0,0.2-0.07,0.2-0.17v0c0-0.11-0.08-0.17-0.21-0.17h-0.26v0.35L67.19,69.37L67.19,69.37z"/>
				</g>
			</g>
		</g>
		<g>
			<g>
				<path class="st0" d="M69.03,35.87h-5.24V33.2h3.55v-6.22H54.01v6.22h3.55v2.67H47.49l-4.59-8.89h-9.32v6.22h3.55v2.67H24.68
					v6.22h2.67v13.33h-2.67v6.22h12.44v2.67h-3.55v6.22H46.9V64.3h-3.55v-2.67h10.09l4.59,8.89h5.77h0l0-8.89h5.24l4.53-4.53V40.39
					L69.03,35.87z M67.34,42.97v11.56l-0.89,0.89h-2.66V42.08h2.67L67.34,42.97z M57.57,42.09v13.33L50.7,42.09H57.57z M33.57,55.41
					V42.08h3.55v13.33H33.57z M43.35,55.41V42.08l6.88,13.33H43.35z"/>
			</g>
		</g>
	</g>
	<g>
		<g>
			<path class="st0" d="M49.12,90.25c-22.88,0-41.5-18.62-41.5-41.5s18.62-41.5,41.5-41.5s41.5,18.62,41.5,41.5
				S72.01,90.25,49.12,90.25z M49.12,11.81c-20.37,0-36.94,16.57-36.94,36.94s16.57,36.94,36.94,36.94s36.94-16.57,36.94-36.94
				S69.49,11.81,49.12,11.81z"/>
		</g>
	</g>
</g>
</svg>
